<svg xmlns="http://www.w3.org/2000/svg" viewBox="0 0 95.54 128.85"><defs><style>.cls-1{fill:#fdc500;}.cls-2{fill:#00509d;}</style></defs><g id="Layer_2" data-name="Layer 2"><g id="Layer_1-2" data-name="Layer 1"><path class="cls-1" d="M15.38,83.18C8.69,65.54,1.38,42.93.14,25.43c-.7-9.95,1.15-16.62,6-21.61C8.5,1.39,10.94,0,12.85,0c.47,0,1.9,0,3.67,2.21,6.61,8.29,12.3,17.79,17.81,27,1.49,2.47,8,12.63,9.48,15.09C33.85,58.24,15.38,83.18,15.38,83.18Z"/><path class="cls-2" d="M45.61,128.85a22,22,0,0,1-20.46-30c.69-1.36,1.38-2.7,2.09-4,1.84-3.54,3.71-7,5.64-10.5,9-16.1,20.3-31.45,31.26-46.29,2.92-3.95,7.8-7.83,14.14-11.27a16.11,16.11,0,0,1,7.57-2.11,9.22,9.22,0,0,1,7.06,2.92c2,2.25,2.93,5.55,2.54,9.53a113.62,113.62,0,0,1-8.68,34.27C80,86.76,72.56,102,65.56,116.12c-.26.57-.45.93-.64,1.27A22,22,0,0,1,45.61,128.85Z"/></g></g></svg>